<?xml version="1.0" encoding="utf-8"?>
<!-- Generator: Adobe Illustrator 14.0.0, SVG Export Plug-In . SVG Version: 6.00 Build 43363)  -->
<!DOCTYPE svg PUBLIC "-//W3C//DTD SVG 1.1//EN" "http://www.w3.org/Graphics/SVG/1.1/DTD/svg11.dtd">
<svg version="1.1" xmlns="http://www.w3.org/2000/svg" xmlns:xlink="http://www.w3.org/1999/xlink" x="0px" y="0px"
	 width="2217.222px" height="528.053px" viewBox="0 0 2217.222 528.053" enable-background="new 0 0 2217.222 528.053"
	 xml:space="preserve">
<g id="Layer_1" display="none">
	<g display="inline">
		<g>
			<path d="M1182.616,329.836h-117.682c-40.557,0-73.551-32.995-73.551-73.552V138.603c0-40.556,32.994-73.551,73.551-73.551
				h117.682c40.557,0,73.551,32.995,73.551,73.551v117.682C1256.167,296.841,1223.173,329.836,1182.616,329.836L1182.616,329.836z
				 M1064.935,114.086c-13.519,0-24.518,10.998-24.518,24.517v117.682c0,13.52,10.999,24.519,24.518,24.519h117.682
				c13.519,0,24.518-10.999,24.518-24.519V138.603c0-13.519-10.999-24.517-24.518-24.517H1064.935L1064.935,114.086z"/>
		</g>
		<polygon points="1197.939,174.944 1146.275,174.944 1146.275,123.28 1101.275,123.28 1101.275,174.944 1049.611,174.944 
			1049.611,219.944 1101.275,219.944 1101.275,271.609 1146.275,271.609 1146.275,219.944 1197.939,219.944 		"/>
	</g>
	<g>
		<path display="inline" fill="none" stroke="#000000" stroke-width="49.0341" d="M1227.119,256.222
			c0,27.082-21.953,49.035-49.034,49.035h-117.682c-27.081,0-49.034-21.953-49.034-49.035V138.541
			c0-27.082,21.953-49.034,49.034-49.034h117.682c27.081,0,49.034,21.952,49.034,49.034V256.222z"/>
		
			<line display="inline" fill="none" stroke="#000000" stroke-width="17.9792" x1="1119.244" y1="197.382" x2="1119.244" y2="244.128"/>
		
			<line display="inline" fill="none" stroke="#000000" stroke-width="35.9583" x1="1119.244" y1="197.382" x2="1119.244" y2="271.546"/>
		
			<line display="inline" fill="none" stroke="#000000" stroke-width="35.9583" x1="1119.244" y1="197.382" x2="1193.408" y2="197.382"/>
		
			<line display="inline" fill="none" stroke="#000000" stroke-width="35.9583" x1="1119.244" y1="197.382" x2="1045.08" y2="197.382"/>
		
			<line display="inline" fill="none" stroke="#000000" stroke-width="35.9583" x1="1119.244" y1="197.382" x2="1119.244" y2="123.218"/>
	</g>
	<rect x="1101.275" y="123.28" fill="#FFFFFF" width="9.194" height="9.194"/>
	<rect x="1137.108" y="123.28" fill="#FFFFFF" width="9.194" height="9.194"/>
	<rect x="1101.275" y="174.944" fill="#FFFFFF" width="45" height="45"/>
	<rect x="1197.939" y="262.415" display="inline" fill="#FFFFFF" width="9.194" height="9.194"/>
	<rect x="1197.939" y="271.609" display="inline" width="9.194" height="9.194"/>
	<rect x="1197.939" y="253.22" display="inline" fill="#FFFFFF" width="9.194" height="9.194"/>
	<rect x="1188.745" y="271.609" display="inline" fill="#FFFFFF" width="9.194" height="9.194"/>
	<rect x="1179.551" y="271.609" display="inline" fill="#FFFFFF" width="9.194" height="9.194"/>
	<rect x="1188.746" y="114.085" display="inline" fill="#FFFFFF" width="9.193" height="9.194"/>
	<rect x="1197.939" y="114.085" display="inline" width="9.195" height="9.194"/>
	<rect x="1179.551" y="114.085" display="inline" fill="#FFFFFF" width="9.195" height="9.194"/>
	<rect x="1197.939" y="123.28" display="inline" fill="#FFFFFF" width="9.195" height="9.194"/>
	<rect x="1197.939" y="132.474" display="inline" fill="#FFFFFF" width="9.195" height="9.194"/>
	<rect x="1040.416" y="123.28" display="inline" fill="#FFFFFF" width="9.195" height="9.193"/>
	<rect x="1040.416" y="114.084" display="inline" width="9.195" height="9.195"/>
	<rect x="1040.416" y="132.473" display="inline" fill="#FFFFFF" width="9.195" height="9.195"/>
	<rect x="1049.611" y="114.084" display="inline" fill="#FFFFFF" width="9.193" height="9.195"/>
	<rect x="1058.805" y="114.084" display="inline" fill="#FFFFFF" width="9.195" height="9.195"/>
	<rect x="1049.611" y="271.608" display="inline" fill="#FFFFFF" width="9.193" height="9.195"/>
	<rect x="1040.416" y="271.608" display="inline" width="9.195" height="9.195"/>
	<rect x="1058.805" y="271.608" display="inline" fill="#FFFFFF" width="9.195" height="9.195"/>
	<rect x="1040.416" y="262.415" display="inline" fill="#FFFFFF" width="9.195" height="9.193"/>
	<rect x="1040.416" y="253.219" display="inline" fill="#FFFFFF" width="9.195" height="9.195"/>
</g>
<g id="Layer_3" display="none">
	<g display="inline">
		<path d="M1321.744,296.704v-9h-9v-9h-9h-9h-9h-9h-9h-9h-9h-9h-9h-9h-9h-9h-9v9h-9v9h-9v9v9v9v9v9v9v9v9v9v9v9v9v9h9v9h9v9h9h9h9h9
			h9h9h9h9h9h9h9h9h9v-9h9v-9h9v-9v-9v-9v-9v-9v-9v-9v-9v-9v-9v-9v-9v-9H1321.744z M1294.744,404.704h-9h-9h-9h-9h-9h-9h-9h-9h-9h-9
			v-9v-9v-9v-9v-9v-9v-9v-9v-9v-9v-9h9h9h9h9h9h9h9h9h9h9h9v9v9v9v9v9v9v9v9v9v9v9H1294.744z"/>
		<polygon points="1276.744,341.704 1267.744,341.704 1267.744,332.704 1267.744,323.704 1267.744,314.704 1258.744,314.704 
			1249.744,314.704 1240.744,314.704 1240.744,323.704 1240.744,332.704 1240.744,341.704 1231.744,341.704 1222.744,341.704 
			1213.744,341.704 1213.744,350.704 1213.744,359.704 1213.744,368.704 1222.744,368.704 1231.744,368.704 1240.744,368.704 
			1240.744,377.704 1240.744,386.704 1240.744,395.704 1249.744,395.704 1258.744,395.704 1267.744,395.704 1267.744,386.704 
			1267.744,377.704 1267.744,368.704 1276.744,368.704 1285.744,368.704 1294.744,368.704 1294.744,359.704 1294.744,350.704 
			1294.744,341.704 1285.744,341.704 		"/>
	</g>
</g>
<g id="DS_Logo_1" display="none">
	<g id="Layer_3_copy" display="inline">
		<g>
			<path d="M819.681,53.576V34.193h-19.385V14.806h-19.385h-19.385h-19.384h-19.385h-19.385h-19.385h-19.385H645.22h-19.384H606.45
				h-19.385h-19.385h-19.384v19.387h-19.384v19.383h-19.385V72.96v19.385v19.385v19.385V150.5v19.383v19.385v19.385v19.385v19.387
				v19.383v19.385v19.385h19.385v19.383h19.384v19.385h19.384h19.385h19.385h19.386h19.384h19.384h19.385h19.385h19.385h19.385
				h19.384h19.385h19.385v-19.385h19.385v-19.383h19.384v-19.385v-19.385v-19.383v-19.387v-19.385v-19.385v-19.385V150.5v-19.385
				V111.73V92.345V72.96V53.576H819.681z M761.526,286.191h-19.384h-19.385h-19.385h-19.385h-19.385H645.22h-19.384H606.45h-19.385
				h-19.385v-19.385v-19.383v-19.387v-19.385v-19.385v-19.385V150.5v-19.385V111.73V92.345V72.96h19.385h19.385h19.386h19.384
				h19.384h19.385h19.385h19.385h19.385h19.384h19.385v19.385v19.385v19.385V150.5v19.383v19.385v19.385v19.385v19.387v19.383
				v19.385H761.526z"/>
			<polygon points="722.758,150.5 703.373,150.5 703.373,131.115 703.373,111.73 703.373,92.345 683.988,92.345 664.604,92.345 
				645.22,92.345 645.22,111.73 645.22,131.115 645.22,150.5 625.836,150.5 606.45,150.5 587.065,150.5 587.065,169.882 
				587.065,189.267 587.065,208.652 606.45,208.652 625.836,208.652 645.22,208.652 645.22,228.037 645.22,247.423 645.22,266.806 
				664.604,266.806 683.988,266.806 703.373,266.806 703.373,247.423 703.373,228.037 703.373,208.652 722.758,208.652 
				742.143,208.652 761.526,208.652 761.526,189.267 761.526,169.882 761.526,150.5 742.143,150.5 			"/>
		</g>
	</g>
	<g id="Layer_2" display="inline">
		<text transform="matrix(0.9065 0 0 1 862.1416 315.3599)"><tspan x="0" y="0" stroke="#000000" stroke-width="11.8971" font-family="'BlairMdITCTTMedium'" font-size="171.4105" letter-spacing="-4.412">DI</tspan><tspan x="235.687" y="0" stroke="#000000" stroke-width="11.8971" stroke-linejoin="round" font-family="'BlairMdITCTTMedium'" font-size="171.4105" letter-spacing="-4.412">G</tspan><tspan x="418.41" y="0" stroke="#000000" stroke-width="11.8971" font-family="'BlairMdITCTTMedium'" font-size="171.4105" letter-spacing="-11.031">IT</tspan><tspan x="602.846" y="0" stroke="#000000" stroke-width="11.8971" font-family="'BlairMdITCTTMedium'" font-size="171.4105" letter-spacing="-4.412">AL</tspan><tspan x="-240.66" y="190.354" stroke="#000000" stroke-width="11.8971" stroke-linecap="round" stroke-linejoin="round" font-family="'BlairMdITCTTMedium'" font-size="171.4105" letter-spacing="-7.722">S</tspan><tspan x="-87.762" y="190.354" stroke="#000000" stroke-width="11.8971" font-family="'BlairMdITCTTMedium'" font-size="171.4105" letter-spacing="-7.722">U</tspan><tspan x="84.503" y="190.354" stroke="#000000" stroke-width="11.8971" font-family="'BlairMdITCTTMedium'" font-size="171.4105" letter-spacing="1.103">R</tspan><tspan x="259.17" y="190.354" stroke="#000000" stroke-width="11.8971" font-family="'BlairMdITCTTMedium'" font-size="171.4105" letter-spacing="-9.928">VIV</tspan><tspan x="606.445" y="190.354" stroke="#000000" stroke-width="11.8971" font-family="'BlairMdITCTTMedium'" font-size="171.4105" letter-spacing="-7.722">AL</tspan></text>
	</g>
</g>
<g id="DSLogo2" display="none">
	<g id="Layer_3_copy_2">
		<g display="inline">
			<path d="M280.502,177.807V164.07h-13.738v-13.738h-13.737h-13.737h-13.737h-13.736H198.08h-13.736h-13.738H156.87h-13.737
				h-13.737h-13.737h-13.737H88.185v13.738H74.448v13.736H60.711v13.736v13.736v13.738v13.737v13.738v13.736v13.736v13.736v13.738
				v13.736v13.736v13.736v13.738h13.737v13.736h13.736v13.736h13.737h13.737h13.737h13.737h13.737h13.736h13.738h13.736h13.737
				h13.736h13.737h13.737h13.737v-13.736h13.738v-13.736h13.736v-13.738v-13.736v-13.736V301.44v-13.738v-13.736v-13.736v-13.736
				v-13.738v-13.737v-13.738v-13.736v-13.736H280.502z M239.291,342.649h-13.737h-13.736H198.08h-13.736h-13.738H156.87h-13.737
				h-13.737h-13.737h-13.737v-13.736v-13.736V301.44v-13.738v-13.736v-13.736v-13.736v-13.738v-13.737v-13.738v-13.736h13.737
				h13.737h13.737h13.737h13.736h13.738h13.736h13.737h13.736h13.737h13.737v13.736v13.738v13.737v13.738v13.736v13.736v13.736
				v13.738v13.736v13.736v13.736H239.291z"/>
			<polygon points="211.817,246.493 198.08,246.493 198.08,232.754 198.08,219.018 198.08,205.279 184.344,205.279 170.606,205.279 
				156.87,205.279 156.87,219.018 156.87,232.754 156.87,246.493 143.133,246.493 129.396,246.493 115.658,246.493 115.658,260.229 
				115.658,273.965 115.658,287.702 129.396,287.702 143.133,287.702 156.87,287.702 156.87,301.44 156.87,315.176 156.87,328.913 
				170.606,328.913 184.344,328.913 198.08,328.913 198.08,315.176 198.08,301.44 198.08,287.702 211.817,287.702 225.554,287.702 
				239.291,287.702 239.291,273.965 239.291,260.229 239.291,246.493 225.554,246.493 			"/>
		</g>
	</g>
	<g id="Layer_3_copy_3" display="inline">
		<g>
			<path fill="#232F67" d="M280.502,177.807V164.07h-13.738v-13.738h-13.737h-13.737h-13.737h-13.736H198.08h-13.736h-13.738H156.87
				h-13.737h-13.737h-13.737h-13.737H88.185v13.738H74.448v13.736H60.711v13.736v13.736v13.738v13.737v13.738v13.736v13.736v13.736
				v13.738v13.736v13.736v13.736v13.738h13.737v13.736h13.736v13.736h13.737h13.737h13.737h13.737h13.737h13.736h13.738h13.736
				h13.737h13.736h13.737h13.737h13.737v-13.736h13.738v-13.736h13.736v-13.738v-13.736v-13.736V301.44v-13.738v-13.736v-13.736
				v-13.736v-13.738v-13.737v-13.738v-13.736v-13.736H280.502z"/>
			<g id="XMLID_1_">
				<g>
					<polygon fill="#4D6CB4" points="101.924,273.963 101.924,260.234 101.924,246.494 101.924,232.753 101.924,219.014 
						101.924,205.284 115.654,205.284 115.654,191.543 129.394,191.543 143.134,191.543 156.874,191.543 170.604,191.543 
						184.344,191.543 198.084,191.543 211.814,191.543 225.554,191.543 239.294,191.543 239.294,205.284 253.024,205.284 
						253.024,219.014 253.024,232.753 253.024,246.494 253.024,260.234 253.024,273.963 253.024,287.704 253.024,301.444 
						253.024,315.173 253.024,328.914 239.294,328.914 239.294,342.654 225.554,342.654 211.814,342.654 198.084,342.654 
						184.344,342.654 170.604,342.654 156.874,342.654 143.134,342.654 129.394,342.654 115.654,342.654 115.654,328.914 
						101.924,328.914 101.924,315.173 101.924,301.444 101.924,287.704 					"/>
				</g>
				<g>
				</g>
			</g>
			<polygon fill="#FFFFFF" points="211.817,246.493 198.08,246.493 198.08,232.754 198.08,219.018 198.08,205.279 184.344,205.279 
				170.606,205.279 156.87,205.279 156.87,219.018 156.87,232.754 156.87,246.493 143.133,246.493 129.396,246.493 115.658,246.493 
				115.658,260.229 115.658,273.965 115.658,287.702 129.396,287.702 143.133,287.702 156.87,287.702 156.87,301.44 156.87,315.176 
				156.87,328.913 170.606,328.913 184.344,328.913 198.08,328.913 198.08,315.176 198.08,301.44 198.08,287.702 211.817,287.702 
				225.554,287.702 239.291,287.702 239.291,273.965 239.291,260.229 239.291,246.493 225.554,246.493 			"/>
		</g>
	</g>
	<g id="Layer_2_copy" display="inline">
		<text transform="matrix(0.9065 0 0 1 319.9507 328.9126)"><tspan x="0" y="0" stroke="#000000" stroke-width="8" font-family="'BlairMdITCTTMedium'" font-size="171.4105" letter-spacing="-4.412">DI</tspan><tspan x="235.687" y="0" stroke="#000000" stroke-width="8" stroke-linejoin="round" font-family="'BlairMdITCTTMedium'" font-size="171.4105" letter-spacing="-4.412">G</tspan><tspan x="418.409" y="0" stroke="#000000" stroke-width="8" font-family="'BlairMdITCTTMedium'" font-size="171.4105" letter-spacing="-17.649">IT</tspan><tspan x="589.476" y="0" stroke="#000000" stroke-width="8" font-family="'BlairMdITCTTMedium'" font-size="171.4105" letter-spacing="-4.412">A</tspan><tspan x="747.344" y="0" stroke="#000000" stroke-width="8" font-family="'BlairMdITCTTMedium'" font-size="171.4105" letter-spacing="-1.103">L</tspan><tspan x="886.698" y="0" stroke="#000000" stroke-width="8" stroke-linecap="round" stroke-linejoin="round" font-family="'BlairMdITCTTMedium'" font-size="171.4105" letter-spacing="-1.103">S</tspan><tspan x="1046.452" y="0" stroke="#000000" stroke-width="8" font-family="'BlairMdITCTTMedium'" font-size="171.4105" letter-spacing="-7.722">U</tspan><tspan x="1218.718" y="0" stroke="#000000" stroke-width="8" font-family="'BlairMdITCTTMedium'" font-size="171.4105" letter-spacing="1.103">R</tspan><tspan x="1393.384" y="0" stroke="#000000" stroke-width="8" font-family="'BlairMdITCTTMedium'" font-size="171.4105" letter-spacing="-18.752">VIV</tspan><tspan x="1717.006" y="0" stroke="#000000" stroke-width="8" font-family="'BlairMdITCTTMedium'" font-size="171.4105" letter-spacing="-7.722">AL</tspan></text>
	</g>
</g>
<g id="DSLogo2_Traced">
	<g id="Layer_3_copy_4_1_" display="none">
		<g display="inline">
			<path d="M280.502,177.807V164.07h-13.738v-13.738h-13.737h-13.737h-13.737h-13.736H198.08h-13.736h-13.738H156.87h-13.737
				h-13.737h-13.737h-13.737H88.185v13.738H74.448v13.736H60.711v13.736v13.736v13.738v13.737v13.738v13.736v13.736v13.736v13.738
				v13.736v13.736v13.736v13.738h13.737v13.736h13.736v13.736h13.737h13.737h13.737h13.737h13.737h13.736h13.738h13.736h13.737
				h13.736h13.737h13.737h13.737v-13.736h13.738v-13.736h13.736v-13.738v-13.736v-13.736V301.44v-13.738v-13.736v-13.736v-13.736
				v-13.738v-13.737v-13.738v-13.736v-13.736H280.502z M239.291,342.649h-13.737h-13.736H198.08h-13.736h-13.738H156.87h-13.737
				h-13.737h-13.737h-13.737v-13.736v-13.736V301.44v-13.738v-13.736v-13.736v-13.736v-13.738v-13.737v-13.738v-13.736h13.737
				h13.737h13.737h13.737h13.736h13.738h13.736h13.737h13.736h13.737h13.737v13.736v13.738v13.737v13.738v13.736v13.736v13.736
				v13.738v13.736v13.736v13.736H239.291z"/>
			<polygon points="211.817,246.493 198.08,246.493 198.08,232.754 198.08,219.018 198.08,205.279 184.344,205.279 170.606,205.279 
				156.87,205.279 156.87,219.018 156.87,232.754 156.87,246.493 143.133,246.493 129.396,246.493 115.658,246.493 115.658,260.229 
				115.658,273.965 115.658,287.702 129.396,287.702 143.133,287.702 156.87,287.702 156.87,301.44 156.87,315.176 156.87,328.913 
				170.606,328.913 184.344,328.913 198.08,328.913 198.08,315.176 198.08,301.44 198.08,287.702 211.817,287.702 225.554,287.702 
				239.291,287.702 239.291,273.965 239.291,260.229 239.291,246.493 225.554,246.493 			"/>
		</g>
	</g>
	<g id="Layer_3_copy_4">
		<g>
			<path fill="#232F67" d="M280.502,177.807V164.07h-13.738v-13.738h-13.737h-13.737h-13.737h-13.736H198.08h-13.736h-13.738H156.87
				h-13.737h-13.737h-13.737h-13.737H88.185v13.738H74.448v13.736H60.711v13.736v13.736v13.738v13.737v13.738v13.736v13.736v13.736
				v13.738v13.736v13.736v13.736v13.738h13.737v13.736h13.736v13.736h13.737h13.737h13.737h13.737h13.737h13.736h13.738h13.736
				h13.737h13.736h13.737h13.737h13.737v-13.736h13.738v-13.736h13.736v-13.738v-13.736v-13.736V301.44v-13.738v-13.736v-13.736
				v-13.736v-13.738v-13.737v-13.738v-13.736v-13.736H280.502z"/>
			<g id="XMLID_2_">
				<g>
					<polygon fill="#4D6CB4" points="101.924,273.963 101.924,260.234 101.924,246.494 101.924,232.753 101.924,219.014 
						101.924,205.284 115.654,205.284 115.654,191.543 129.394,191.543 143.134,191.543 156.874,191.543 170.604,191.543 
						184.344,191.543 198.084,191.543 211.814,191.543 225.554,191.543 239.294,191.543 239.294,205.284 253.024,205.284 
						253.024,219.014 253.024,232.753 253.024,246.494 253.024,260.234 253.024,273.963 253.024,287.704 253.024,301.444 
						253.024,315.173 253.024,328.914 239.294,328.914 239.294,342.654 225.554,342.654 211.814,342.654 198.084,342.654 
						184.344,342.654 170.604,342.654 156.874,342.654 143.134,342.654 129.394,342.654 115.654,342.654 115.654,328.914 
						101.924,328.914 101.924,315.173 101.924,301.444 101.924,287.704 					"/>
				</g>
				<g>
				</g>
			</g>
			<polygon fill="#FFFFFF" points="211.817,246.493 198.08,246.493 198.08,232.754 198.08,219.018 198.08,205.279 184.344,205.279 
				170.606,205.279 156.87,205.279 156.87,219.018 156.87,232.754 156.87,246.493 143.133,246.493 129.396,246.493 115.658,246.493 
				115.658,260.229 115.658,273.965 115.658,287.702 129.396,287.702 143.133,287.702 156.87,287.702 156.87,301.44 156.87,315.176 
				156.87,328.913 170.606,328.913 184.344,328.913 198.08,328.913 198.08,315.176 198.08,301.44 198.08,287.702 211.817,287.702 
				225.554,287.702 239.291,287.702 239.291,273.965 239.291,260.229 239.291,246.493 225.554,246.493 			"/>
		</g>
	</g>
	<g id="Layer_2_copy_2">
		<g>
			<g>
				<path d="M409.923,204.811c19.58,0,35.092,5.742,46.54,17.228c11.445,11.484,17.171,26.884,17.171,46.195
					c0,17.715-6.061,32.455-18.181,44.225c-11.292,10.969-25.278,16.455-41.956,16.455h-74.744V204.811H409.923z M415.051,310.399
					c11.188,0,20.38-3.984,27.582-11.957c7.199-7.975,10.8-18.213,10.8-30.721c0-13.307-3.86-24.033-11.577-32.18
					c-7.719-8.145-17.846-12.218-30.379-12.218H357.4v87.076H415.051z"/>
				<path d="M413.497,332.913h-78.744V200.811h75.17c20.589,0,37.201,6.192,49.373,18.404
					c12.168,12.209,18.338,28.701,18.338,49.019c0,18.753-6.525,34.598-19.395,47.095
					C446.226,326.996,431.172,332.913,413.497,332.913L413.497,332.913z M342.753,324.913h70.744
					c15.741,0,28.553-5.013,39.169-15.324c11.418-11.087,16.968-24.614,16.968-41.355c0-18.124-5.385-32.716-16.004-43.371
					c-10.617-10.651-25.322-16.051-43.707-16.051h-67.17V324.913L342.753,324.913z M415.051,314.399H353.4v-95.076h58.076
					c13.617,0,24.814,4.531,33.283,13.467c8.41,8.878,12.673,20.63,12.673,34.931c0,13.468-3.98,24.705-11.831,33.401
					C437.644,309.932,427.365,314.399,415.051,314.399L415.051,314.399z M361.4,306.399h53.65c10.096,0,18.147-3.479,24.614-10.639
					c6.573-7.28,9.768-16.452,9.768-28.039c0-12.357-3.428-21.983-10.481-29.429c-6.994-7.381-15.982-10.969-27.475-10.969H361.4
					V306.399L361.4,306.399z"/>
			</g>
			<g>
				<path d="M518.851,328.913h-18.647V204.811h18.647V328.913z"/>
				<path d="M522.851,332.913h-26.647V200.811h26.647V332.913L522.851,332.913z M504.204,324.913h10.647V208.811h-10.647V324.913
					L504.204,324.913z"/>
			</g>
			<g>
				<path d="M690.403,264.971c0,20.178-6.553,36.479-19.657,48.902c-13.105,12.428-30.483,18.639-52.134,18.639
					c-19.788,0-36.311-5.541-49.57-16.627c-15.022-12.57-22.532-28.969-22.532-49.195c0-19.883,7.614-36.224,22.843-49.023
					c13.364-11.198,30.301-16.799,50.813-16.799c24.758,0,45.064,10.001,60.914,29.997l-17.404,9.598
					c-11.707-13.825-26.727-20.74-45.063-20.74c-14.296,0-26.261,3.886-35.896,11.656c-11.188,9.029-16.782,20.798-16.782,35.31
					c0,13.943,4.817,25.256,14.451,33.939c9.634,8.686,22.376,13.027,38.227,13.027c24.862,0,41.023-10.684,48.482-32.055h-52.367
					V263.09h75.676V264.971z"/>
				<path d="M618.612,336.512c-20.66,0-38.201-5.907-52.136-17.559c-15.903-13.308-23.966-30.891-23.966-52.264
					c0-21.026,8.166-38.551,24.269-52.085c14.047-11.771,32.007-17.737,53.387-17.737c25.925,0,47.474,10.603,64.048,31.512
					c0.73,0.922,1.019,2.119,0.787,3.273c-0.232,1.154-0.96,2.146-1.99,2.714l-17.404,9.599c-1.669,0.919-3.754,0.536-4.984-0.918
					c-11.012-13.003-24.753-19.325-42.011-19.325c-13.292,0-24.524,3.624-33.384,10.77c-10.291,8.304-15.293,18.836-15.293,32.196
					c0,12.876,4.294,23.006,13.129,30.968c8.831,7.962,20.792,11.999,35.548,11.999c20.999,0,34.975-7.882,42.549-24.055h-46.434
					c-2.209,0-4-1.791-4-4V263.09c0-2.209,1.791-4,4-4h75.676c2.209,0,4,1.791,4,4v1.881c0,21.225-7.033,38.654-20.905,51.805
					C659.688,329.872,641.222,336.512,618.612,336.512L618.612,336.512z M620.167,204.868c-19.45,0-35.682,5.338-48.245,15.865
					c-14.406,12.108-21.412,27.142-21.412,45.957c0,19.159,6.901,34.247,21.099,46.128c12.456,10.413,28.271,15.694,47.003,15.694
					c20.493,0,37.107-5.901,49.382-17.541c11.929-11.31,17.954-25.68,18.385-43.881h-67.651v10.512h48.367
					c1.296,0,2.511,0.628,3.262,1.684c0.75,1.057,0.941,2.411,0.515,3.635c-8.045,23.049-25.627,34.736-52.259,34.736
					c-16.796,0-30.559-4.729-40.905-14.057c-10.466-9.433-15.773-21.852-15.773-36.91c0-15.713,6.147-28.64,18.27-38.423
					c10.32-8.323,23.242-12.543,38.408-12.543c18.359,0,33.796,6.621,45.933,19.692l10.36-5.713
					C660.252,213.002,642.299,204.868,620.167,204.868L620.167,204.868z"/>
			</g>
			<g>
				<path d="M736.71,328.913h-18.647V204.811h18.647V328.913z"/>
				<path d="M740.71,332.913h-26.647V200.811h26.647V332.913L740.71,332.913z M722.062,324.913h10.647V208.811h-10.647V324.913
					L722.062,324.913z"/>
			</g>
			<g>
				<path d="M868.016,223.323H814.25v105.589h-18.646V223.323h-53.766v-18.513h126.178V223.323z"/>
				<path d="M818.25,332.913h-26.646V227.323h-53.766v-26.513h134.178v26.513H818.25V332.913L818.25,332.913z M799.604,324.913
					h10.646V219.323h53.766v-10.513H745.838v10.513h53.766V324.913L799.604,324.913z"/>
			</g>
			<g>
				<path d="M999.166,328.913H978.77l-12.965-27.77h-75.775l-12.966,27.77h-20.393l59.515-124.102h23.465L999.166,328.913z
					 M956.75,282.631l-28.657-60.127l-29.01,60.127H956.75z"/>
				<path d="M1005.521,332.913h-29.298l-12.965-27.77h-70.682l-12.966,27.77h-29.294l63.352-132.102h28.5L1005.521,332.913
					L1005.521,332.913z M981.316,324.913h11.495l-55.679-116.102h-18.43l-55.678,116.102h11.491l12.966-27.77h80.869
					L981.316,324.913L981.316,324.913z M963.088,286.631h-70.376l35.403-73.378L963.088,286.631L963.088,286.631z M905.454,278.631
					h44.958l-22.342-46.876L905.454,278.631L905.454,278.631z"/>
			</g>
			<g>
				<path d="M1121.769,328.913h-105.512V204.811h18.647v105.588h86.864V328.913z"/>
				<path d="M1125.769,332.913h-113.512V200.811h26.647v105.588h86.864V332.913L1125.769,332.913z M1020.257,324.913h97.512v-10.514
					h-86.864V208.811h-10.647V324.913L1020.257,324.913z"/>
			</g>
			<g>
				<path d="M1241.264,233.952c-16.68-9.37-33.668-14.057-50.969-14.057c-11.498,0-20.305,1.487-26.416,4.457
					c-6.113,2.973-9.168,7.087-9.168,12.342c0,5.484,3.264,9.486,9.789,11.998c4.662,1.83,12.276,3.086,22.843,3.771
					c15.54,1.143,25.796,2.057,30.769,2.742c14.086,2.057,24.498,5.887,31.232,11.484c6.734,5.6,10.102,13.541,10.102,23.826
					c0,13.143-5.283,23.312-15.85,30.512s-25.744,10.799-45.531,10.799c-28.695,0-51.021-6.969-66.974-20.912L1141.347,296
					c17.61,11.887,36.568,17.828,56.874,17.828c13.154,0,23.359-1.998,30.611-6c6.939-3.883,10.412-9.197,10.412-15.941
					c0-7.885-4.561-13.139-13.674-15.77c-4.768-1.371-17.613-2.799-38.538-4.285c-18.545-1.371-31.544-4.113-39.003-8.229
					c-8.703-4.799-13.053-12.855-13.053-24.168c0-11.656,4.945-20.853,14.84-27.597c9.891-6.741,23.852-10.113,41.877-10.113
					c24.242,0,44.545,6.114,60.914,18.341L1241.264,233.952z"/>
				<path d="M1198.064,335.827c-29.562,0-52.98-7.368-69.606-21.9c-1.528-1.336-1.813-3.605-0.663-5.278l10.256-14.914
					c1.244-1.808,3.712-2.277,5.534-1.049c16.853,11.376,35.235,17.144,54.636,17.144c12.414,0,22.062-1.852,28.679-5.502
					c5.687-3.182,8.345-7.139,8.345-12.439c0-3.783-1.118-9.136-10.783-11.927c-3.072-0.884-12.113-2.319-37.712-4.138
					c-19.315-1.429-32.609-4.279-40.652-8.717c-10.032-5.531-15.12-14.842-15.12-27.67c0-13.003,5.581-23.4,16.587-30.902
					c10.522-7.172,25.37-10.808,44.13-10.808c25.008,0,46.308,6.438,63.308,19.136c0.874,0.653,1.443,1.634,1.576,2.717
					c0.134,1.083-0.182,2.173-0.872,3.018l-11.344,13.885c-1.229,1.506-3.362,1.907-5.057,0.957
					c-15.999-8.987-32.488-13.544-49.01-13.544c-10.832,0-19.131,1.364-24.668,4.055c-6.199,3.015-6.916,6.434-6.916,8.745
					c0,2.354,0.749,5.772,7.226,8.265c4.276,1.679,11.558,2.857,21.665,3.514c15.805,1.161,25.952,2.067,31.056,2.771
					c14.79,2.159,25.964,6.32,33.243,12.371c7.661,6.37,11.545,15.421,11.545,26.902c0,14.483-5.921,25.861-17.598,33.817
					C1234.654,331.959,1218.578,335.827,1198.064,335.827L1198.064,335.827z M1136.459,310.167
					c14.956,11.722,35.657,17.659,61.605,17.659c18.877,0,33.438-3.399,43.279-10.104c9.489-6.465,14.102-15.364,14.102-27.206
					c0-9.118-2.832-15.905-8.659-20.751c-6.131-5.096-15.973-8.662-29.253-10.602c-4.834-0.666-15.102-1.58-30.483-2.711
					c-11.054-0.717-18.919-2.038-24.012-4.037c-10.185-3.92-12.327-10.714-12.327-15.722c0-4.739,1.981-11.351,11.419-15.939
					c6.729-3.271,15.942-4.86,28.165-4.86c16.886,0,33.681,4.357,49.97,12.958l6.533-7.997
					c-15.013-10.042-33.527-15.13-55.104-15.13c-17.123,0-30.455,3.169-39.624,9.418c-8.811,6.005-13.093,13.951-13.093,24.292
					c0,9.83,3.593,16.59,10.984,20.665c6.916,3.815,19.487,6.421,37.366,7.742c21.394,1.52,34.268,2.969,39.349,4.431
					c13.694,3.953,16.568,12.848,16.568,19.613c0,5.685-2.161,13.671-12.459,19.433c-7.834,4.322-18.783,6.509-32.564,6.509
					c-19.752,0-38.5-5.497-55.788-16.349L1136.459,310.167L1136.459,310.167z"/>
			</g>
			<g>
				<path d="M1414.059,288.801c0,12.916-5.697,23.371-17.094,31.369c-11.602,8.342-27.09,12.514-46.461,12.514
					c-19.373,0-34.963-4.172-46.773-12.514c-11.396-8.113-17.094-18.568-17.094-31.369v-83.991h18.648v79.02
					c0,9.715,3.857,17.143,11.576,22.283c7.717,5.143,18.932,7.715,33.643,7.715c14.709,0,25.873-2.572,33.486-7.715
					c7.615-5.141,11.422-12.568,11.422-22.283v-79.02h18.646V288.801z"/>
				<path d="M1350.504,336.684c-20.123,0-36.637-4.457-49.081-13.246c-12.47-8.878-18.786-20.528-18.786-34.637v-87.991h26.648
					v83.02c0,8.365,3.203,14.565,9.793,18.954c7.015,4.674,17.587,7.044,31.426,7.044c13.829,0,24.342-2.365,31.247-7.029
					c6.501-4.389,9.661-10.593,9.661-18.969v-83.02h26.646v87.991c0,14.234-6.324,25.891-18.796,34.644
					C1387.058,332.221,1370.64,336.684,1350.504,336.684L1350.504,336.684z M1290.637,208.811v79.991
					c0,11.532,5.042,20.727,15.414,28.11c11.056,7.809,26.016,11.772,44.453,11.772c18.426,0,33.271-3.957,44.126-11.762
					c10.395-7.295,15.429-16.484,15.429-28.121v-79.991h-10.646v75.02c0,11.08-4.436,19.693-13.184,25.599
					c-8.251,5.573-20.271,8.399-35.725,8.399c-15.445,0-27.511-2.821-35.86-8.387c-8.864-5.902-13.358-14.52-13.358-25.611v-75.02
					H1290.637L1290.637,208.811z"/>
			</g>
			<g>
				<path d="M1571.158,328.913h-21.691l-30.447-47.311h-56.791v47.311h-18.646V204.811h88.729c11.809,0,21.08,3.515,27.814,10.542
					c6.732,7.028,10.102,16.541,10.102,28.541c0,10.514-2.746,18.971-8.236,25.369c-5.076,5.941-12.07,9.713-20.979,11.312
					L1571.158,328.913z M1529.514,263.09c14.398,0,21.6-6.396,21.6-19.193c0-13.714-7.77-20.574-23.309-20.574h-65.576v39.767
					H1529.514z"/>
				<path d="M1578.367,332.913h-31.083l-30.447-47.311h-50.608v47.311h-26.646V200.811h92.729c12.886,0,23.215,3.961,30.702,11.774
					c7.441,7.768,11.214,18.301,11.214,31.308c0,11.447-3.096,20.859-9.2,27.974c-4.535,5.309-10.469,9.096-17.686,11.297
					L1578.367,332.913L1578.367,332.913z M1551.649,324.913h12.3l-29.456-47.231l5.812-1.044c8.046-1.444,14.145-4.707,18.645-9.974
					c4.831-5.63,7.277-13.289,7.277-22.771c0-11.027-2.94-19.458-8.99-25.773c-6.003-6.264-14.156-9.309-24.926-9.309h-84.729
					v116.102h10.646v-47.311h62.974L1551.649,324.913L1551.649,324.913z M1529.514,267.09h-71.285v-47.767h69.576
					c17.61,0,27.309,8.727,27.309,24.574C1555.113,258.853,1546.021,267.09,1529.514,267.09L1529.514,267.09z M1466.229,259.09
					h63.285c15.6,0,17.6-8.119,17.6-15.193c0-11.462-5.955-16.574-19.309-16.574h-61.576V259.09L1466.229,259.09z"/>
			</g>
			<g>
				<path d="M1726.551,204.811l-60.605,124.102h-21.441l-60.605-124.102h20.826l50.5,103.409l50.498-103.409H1726.551z"/>
				<path d="M1668.443,332.913h-26.438l-64.513-132.102h29.729l48.002,98.293l48-98.293h29.731L1668.443,332.913L1668.443,332.913z
					 M1647.002,324.913h16.445l56.698-116.102h-11.925l-52.996,108.524l-52.998-108.524h-11.923L1647.002,324.913L1647.002,324.913z
					"/>
			</g>
			<g>
				<path d="M1747.682,328.913h-18.646V204.811h18.646V328.913z"/>
				<path d="M1751.682,332.913h-26.646V200.811h26.646V332.913L1751.682,332.913z M1733.035,324.913h10.646V208.811h-10.646V324.913
					L1733.035,324.913z"/>
			</g>
			<g>
				<path d="M1892.818,204.811l-60.605,124.102h-21.441l-60.605-124.102h20.828l50.5,103.409l50.498-103.409H1892.818z"/>
				<path d="M1834.711,332.913h-26.438l-64.513-132.102h29.731l48.002,98.293l48-98.293h29.729L1834.711,332.913L1834.711,332.913z
					 M1813.27,324.913h16.445l56.698-116.102h-11.923l-52.996,108.524l-52.998-108.524h-11.925L1813.27,324.913L1813.27,324.913z"/>
			</g>
			<g>
				<path d="M2021.326,328.913h-20.395l-12.965-27.77h-75.775l-12.967,27.77h-20.393l59.516-124.102h23.465L2021.326,328.913z
					 M1978.912,282.631l-28.658-60.127l-29.01,60.127H1978.912z"/>
				<path d="M2027.681,332.913h-29.296l-12.965-27.77h-70.682l-12.967,27.77h-29.294l63.353-132.102h28.5L2027.681,332.913
					L2027.681,332.913z M2003.479,324.913h11.493l-55.677-116.102h-18.43l-55.679,116.102h11.491l12.967-27.77h80.869
					L2003.479,324.913L2003.479,324.913z M1985.25,286.631h-70.377l35.403-73.378L1985.25,286.631L1985.25,286.631z
					 M1927.615,278.631h44.959l-22.343-46.877L1927.615,278.631L1927.615,278.631z"/>
			</g>
			<g>
				<path d="M2140.666,328.913h-105.51V204.811h18.646v105.588h86.863V328.913z"/>
				<path d="M2144.666,332.913h-113.51V200.811h26.646v105.588h86.863V332.913L2144.666,332.913z M2039.156,324.913h97.51v-10.514
					h-86.863V208.811h-10.646V324.913L2039.156,324.913z"/>
			</g>
		</g>
	</g>
</g>
</svg>
